# xmcd CD database file
#
# Track frame offsets:
#	150
#	15950
#	31547
#	47395
#	61032
#	74735
#	91912
#	107037
#	123140
#	138365
#	150587
#
# Disc length: 2199 seconds
#
# Revision: 0
# Processed by: cddbd v1.4PL0 Copyright (c) Steve Scherf et al.
# Submitted via: CDex 1.50beta10
#
DISCID=7908950b
DTITLE=Jamie Lee Thurston - Long Time No See
DYEAR=1998
DGENRE=Country
TTITLE0=The First Time
TTITLE1=Bring On The Ball And Chain
TTITLE2=Long Time No See
TTITLE3=Long, Long Kiss
TTITLE4=Get What You Give
TTITLE5=Any Little Lie
TTITLE6=This Ain't Nothin' New
TTITLE7=I've Been There
TTITLE8=Let The Guitar Do The Talkin'
TTITLE9=Pretty Little Honky Tonk Woman
TTITLE10=It'll Take A Flood
EXTD=YEAR: 1998
EXTT0=
EXTT1=
EXTT2=
EXTT3=
EXTT4=
EXTT5=
EXTT6=
EXTT7=
EXTT8=
EXTT9=
EXTT10=
PLAYORDER=
